<mxfile host="app.diagrams.net" modified="2023-06-01T14:54:27.192Z" agent="Mozilla/5.0 (Windows NT 10.0; Win64; x64) AppleWebKit/537.36 (KHTML, like Gecko) Chrome/113.0.0.0 Safari/537.36" etag="I927tsp-r5Q0uWyUtbRw" version="21.3.6" type="github">
  <diagram name="第 1 页" id="wtgagdJtSoKvuOt7Ttd3">
    <mxGraphModel dx="1760" dy="457" grid="1" gridSize="10" guides="1" tooltips="1" connect="1" arrows="1" fold="1" page="1" pageScale="1" pageWidth="827" pageHeight="1169" math="0" shadow="0">
      <root>
        <mxCell id="0" />
        <mxCell id="1" parent="0" />
        <mxCell id="GBFQyCgQUCiWwmNUR8Ft-9" style="edgeStyle=orthogonalEdgeStyle;rounded=0;orthogonalLoop=1;jettySize=auto;html=1;exitX=0.5;exitY=1;exitDx=0;exitDy=0;" edge="1" parent="1" source="GBFQyCgQUCiWwmNUR8Ft-1" target="GBFQyCgQUCiWwmNUR8Ft-7">
          <mxGeometry relative="1" as="geometry" />
        </mxCell>
        <mxCell id="GBFQyCgQUCiWwmNUR8Ft-10" style="edgeStyle=orthogonalEdgeStyle;rounded=0;orthogonalLoop=1;jettySize=auto;html=1;exitX=0.5;exitY=1;exitDx=0;exitDy=0;" edge="1" parent="1" source="GBFQyCgQUCiWwmNUR8Ft-1" target="GBFQyCgQUCiWwmNUR8Ft-6">
          <mxGeometry relative="1" as="geometry" />
        </mxCell>
        <mxCell id="GBFQyCgQUCiWwmNUR8Ft-11" style="edgeStyle=orthogonalEdgeStyle;rounded=0;orthogonalLoop=1;jettySize=auto;html=1;exitX=0.5;exitY=1;exitDx=0;exitDy=0;" edge="1" parent="1" source="GBFQyCgQUCiWwmNUR8Ft-1" target="GBFQyCgQUCiWwmNUR8Ft-5">
          <mxGeometry relative="1" as="geometry" />
        </mxCell>
        <mxCell id="GBFQyCgQUCiWwmNUR8Ft-12" style="edgeStyle=orthogonalEdgeStyle;rounded=0;orthogonalLoop=1;jettySize=auto;html=1;exitX=0.5;exitY=1;exitDx=0;exitDy=0;" edge="1" parent="1" source="GBFQyCgQUCiWwmNUR8Ft-1" target="GBFQyCgQUCiWwmNUR8Ft-4">
          <mxGeometry relative="1" as="geometry" />
        </mxCell>
        <mxCell id="GBFQyCgQUCiWwmNUR8Ft-1" value="研发客户档案表" style="rounded=0;whiteSpace=wrap;html=1;" vertex="1" parent="1">
          <mxGeometry x="220" y="80" width="120" height="40" as="geometry" />
        </mxCell>
        <mxCell id="GBFQyCgQUCiWwmNUR8Ft-4" value="研发客户档案表&lt;br&gt;D销售数据" style="rounded=0;whiteSpace=wrap;html=1;" vertex="1" parent="1">
          <mxGeometry x="460" y="190" width="120" height="40" as="geometry" />
        </mxCell>
        <mxCell id="GBFQyCgQUCiWwmNUR8Ft-5" value="研发客户档案表&lt;br&gt;C赠样记录" style="rounded=0;whiteSpace=wrap;html=1;" vertex="1" parent="1">
          <mxGeometry x="300" y="190" width="120" height="40" as="geometry" />
        </mxCell>
        <mxCell id="GBFQyCgQUCiWwmNUR8Ft-6" value="研发客户档案表&lt;br&gt;B客户信息" style="rounded=0;whiteSpace=wrap;html=1;" vertex="1" parent="1">
          <mxGeometry x="140" y="190" width="120" height="40" as="geometry" />
        </mxCell>
        <mxCell id="GBFQyCgQUCiWwmNUR8Ft-7" value="研发客户档案表&lt;br&gt;A首部" style="rounded=0;whiteSpace=wrap;html=1;" vertex="1" parent="1">
          <mxGeometry x="-20" y="190" width="120" height="40" as="geometry" />
        </mxCell>
      </root>
    </mxGraphModel>
  </diagram>
</mxfile>
